#!OML:ASF H:\Not Pregnant\Project 1\Capture day 1\Session 1\non-pregnant.ASF
:FULLY-SPECIFIED
:DEGREES
307
root -5.74287 16.3543 34.9579 161.959 -81.989 -148.393
lowerback -13.526 2.91338 4.26818
upperback -6.05163 3.02007 -0.138515
thorax 1.43338 1.30427 -2.1073
lowerneck 11.0024 -6.16194 -30.6123
upperneck -7.86347 -11.6395 37.7506
head 0.521427 -7.26945 19.4437
rclavicle 3.83903e-014 2.76311e-014
rhumerus -36.6192 10.6006 -98.1551
rradius 33.4268
rwrist 21.2698
rhand -12.2615 9.74307
rfingers 7.12502
rthumb 13.805 -19.7789
lclavicle 3.83903e-014 2.76311e-014
lhumerus -40.9021 -10.1044 91.7009
lradius 34.4529
lwrist 48.4594
lhand 17.1875 -5.69354
lfingers 7.12502
lthumb 41.9065 18.9277
rfemur 0 0 0
rtibia 0
rfoot 0 0
rtoes 0
lfemur -15.886 5.88749 -17.01
ltibia 14.4368
lfoot -12.919 -3.64519
ltoes -18.071
308
root -5.74061 16.3537 34.9547 161.731 -82.0369 -148.186
lowerback -13.4813 2.89945 4.25276
upperback -6.05258 3.00665 -0.133459
thorax 1.40653 1.29777 -2.09719
lowerneck 10.9154 -6.13392 -30.6801
upperneck -7.7782 -11.5957 37.714
head 0.543872 -7.23414 19.4367
rclavicle -2.83765e-014 -1.68967e-014
rhumerus -36.8769 11.4422 -98.8782
rradius 33.5312
rwrist 21.1039
rhand -11.1941 10.2754
rfingers 7.12502
rthumb 14.8335 -19.1737
lclavicle -2.83765e-014 -1.68967e-014
lhumerus -40.9853 -10.016 91.6723
lradius 34.3047
lwrist 48.507
lhand 16.4982 -5.83168
lfingers 7.12502
lthumb 41.26 19.0015
rfemur 0 0 0
rtibia 0
rfoot 0 0
rtoes 0
lfemur -15.8849 5.82133 -16.9856
ltibia 14.4527
lfoot -12.9171 -3.63232
ltoes -18.0751
309
root -5.73802 16.3533 34.9531 161.611 -82.0856 -148.086
lowerback -13.4329 2.89143 4.24508
upperback -6.05555 3.00054 -0.137935
thorax 1.37698 1.2946 -2.10042
lowerneck 10.8329 -6.1058 -30.7767
upperneck -7.69602 -11.5589 37.7041
head 0.57228 -7.20435 19.451
rclavicle -7.47927e-015 -2.18663e-015
rhumerus -37.1117 12.3078 -99.575
rradius 33.6112
rwrist 20.8958
rhand -9.86164 10.8106
rfingers 7.12502
rthumb 16.1169 -18.5392
lclavicle -7.47927e-015 -2.18663e-015
lhumerus -41.0676 -9.94601 91.656
lradius 34.1348
lwrist 48.445
lhand 15.8015 -6.02714
lfingers 7.12502
lthumb 40.6056 19.0133
rfemur 0 0 0
rtibia 0
rfoot 0 0
rtoes 0
lfemur -15.8877 5.7372 -16.9801
ltibia 14.4685
lfoot -12.9114 -3.59759
ltoes -18.0838
310
root -5.73527 16.3528 34.9518 161.478 -82.1271 -147.967
lowerback -13.385 2.89226 4.24688
upperback -6.05891 3.00503 -0.146451
thorax 1.34863 1.29654 -2.11155
lowerneck 10.7575 -6.08096 -30.8599
upperneck -7.62288 -11.5253 37.6975
head 0.597606 -7.17753 19.4644
rclavicle -3.39425e-014 -8.34896e-015
rhumerus -37.3155 13.1855 -100.231
rradius 33.6636
rwrist 20.6649
rhand -8.22717 11.373
rfingers 7.12502
rthumb 17.6902 -17.8423
lclavicle -3.39425e-014 -8.34896e-015
lhumerus -41.1434 -9.88781 91.6347
lradius 33.9722
lwrist 48.4556
lhand 15.1572 -6.15339
lfingers 7.12502
lthumb 39.9996 19.0728
rfemur 0 0 0
rtibia 0
rfoot 0 0
rtoes 0
lfemur -15.8958 5.65486 -16.9697
ltibia 14.4867
lfoot -12.9041 -3.55906
ltoes -18.0823
311
root -5.73239 16.3525 34.9506 161.29 -82.1629 -147.791
lowerback -13.3386 2.90117 4.26124
upperback -6.06181 3.01866 -0.156566
thorax 1.32283 1.30286 -2.12995
lowerneck 10.687 -6.05862 -30.9239
upperneck -7.55935 -11.4916 37.6884
head 0.61778 -7.15141 19.4726
rclavicle 2.16178e-014 8.54774e-015
rhumerus -37.4848 14.0791 -100.84
rradius 33.6865
rwrist 20.4328
rhand -6.30612 11.9587
rfingers 7.12502
rthumb 19.5381 -17.0796
lclavicle 2.16178e-014 8.54774e-015
lhumerus -41.2045 -9.81997 91.5959
lradius 33.8235
lwrist 48.6002
lhand 14.5983 -6.17937
lfingers 7.12502
lthumb 39.4734 19.2034
rfemur 0 0 0
rtibia 0
rfoot 0 0
rtoes 0
lfemur -15.9127 5.5825 -16.951
ltibia 14.5129
lfoot -12.8988 -3.52667
ltoes -18.0832
312
root -5.72936 16.3522 34.9496 161.037 -82.1952 -147.544
lowerback -13.2958 2.90961 4.28316
upperback -6.06442 3.03025 -0.159152
thorax 1.29907 1.30811 -2.14491
lowerneck 10.6122 -6.03557 -30.9789
upperneck -7.49772 -11.4529 37.6723
head 0.634978 -7.12207 19.4752
rclavicle -1.66234e-014 -9.54166e-015
rhumerus -37.6276 15.0186 -101.4
rradius 33.6818
rwrist 20.2321
rhand -4.2123 12.5549
rfingers 7.12502
rthumb 21.5501 -16.2662
lclavicle -1.66234e-014 -9.54166e-015
lhumerus -41.2519 -9.71744 91.5416
lradius 33.6805
lwrist 48.7948
lhand 14.1047 -6.16824
lfingers 7.12502
lthumb 39.0082 19.3494
rfemur 0 0 0
rtibia 0
rfoot 0 0
rtoes 0
lfemur -15.9437 5.52945 -16.9251
ltibia 14.552
lfoot -12.8998 -3.50898
ltoes -18.0974
313
root -5.72624 16.3523 34.9487 160.688 -82.2235 -147.195
lowerback -13.2565 2.91953 4.31778
upperback -6.06704 3.04189 -0.156993
thorax 1.27752 1.31321 -2.16191
lowerneck 10.5333 -6.01446 -31.0126
upperneck -7.43962 -11.4109 37.6453
head 0.648133 -7.09045 19.4668
rclavicle 6.21202e-015 -3.57812e-015
rhumerus -37.7529 16.0053 -101.92
rradius 33.659
rwrist 20.0839
rhand -2.04208 13.1606
rfingers 7.12502
rthumb 23.633 -15.4069
lclavicle 6.21202e-015 -3.57812e-015
lhumerus -41.2876 -9.58544 91.4675
lradius 33.5553
lwrist 49.0777
lhand 13.6697 -6.10291
lfingers 7.12502
lthumb 38.598 19.5311
rfemur 0 0 0
rtibia 0
rfoot 0 0
rtoes 0
lfemur -15.9867 5.50086 -16.8873
ltibia 14.5988
lfoot -12.9045 -3.51658
ltoes -18.1171
314
root -5.72322 16.3525 34.948 160.305 -82.2537 -146.808
lowerback -13.2228 2.92369 4.35451
upperback -6.06921 3.04505 -0.14739
thorax 1.25854 1.3141 -2.17338
lowerneck 10.4509 -5.9918 -31.0497
upperneck -7.38104 -11.3659 37.6158
head 0.660866 -7.05668 19.4581
rclavicle 1.41883e-014 4.96962e-015
rhumerus -37.8651 17.0222 -102.399
rradius 33.609
rwrist 20.0155
rhand 0.0498092 13.7171
rfingers 7.12502
rthumb 25.6381 -14.5768
lclavicle 1.41883e-014 4.96962e-015
lhumerus -41.3159 -9.40772 91.3736
lradius 33.4489
lwrist 49.427
lhand 13.2842 -6.00825
lfingers 7.12502
lthumb 38.2343 19.7269
rfemur 0 0 0
rtibia 0
rfoot 0 0
rtoes 0
lfemur -16.0349 5.49219 -16.8499
ltibia 14.6473
lfoot -12.9137 -3.54659
ltoes -18.1496
